<svg width="770" height="300" viewBox="0 0 770 300" fill="none" xmlns="http://www.w3.org/2000/svg">
<path d="M274.554 129.536C279.762 129.536 284.154 130.313 287.729 131.867C291.383 133.344 294.298 135.404 296.474 138.047C298.728 140.612 300.322 143.488 301.255 146.675L286.33 152.039C285.553 148.541 284.232 145.898 282.366 144.11C280.5 142.322 277.974 141.428 274.787 141.428C271.833 141.428 269.307 142.128 267.208 143.527C265.11 144.849 263.516 146.909 262.428 149.707C261.34 152.427 260.796 155.848 260.796 159.967C260.796 164.087 261.34 167.507 262.428 170.228C263.594 172.949 265.226 174.97 267.325 176.291C269.501 177.612 272.028 178.273 274.904 178.273C277.236 178.273 279.218 177.885 280.85 177.107C282.483 176.252 283.804 175.047 284.815 173.493C285.903 171.938 286.641 170.072 287.03 167.896L301.488 172.56C300.633 176.058 299.039 179.128 296.707 181.771C294.376 184.414 291.383 186.474 287.729 187.951C284.076 189.428 279.84 190.166 275.02 190.166C269.035 190.166 263.749 188.961 259.163 186.552C254.577 184.142 251.04 180.683 248.553 176.174C246.065 171.666 244.822 166.225 244.822 159.851C244.822 153.477 246.065 148.036 248.553 143.527C251.04 139.019 254.538 135.56 259.047 133.15C263.555 130.74 268.724 129.536 274.554 129.536ZM343.632 151.806C343.632 148.463 342.661 145.859 340.717 143.994C338.852 142.128 336.365 141.195 333.255 141.195C330.379 141.195 327.853 141.934 325.676 143.411C323.5 144.887 321.906 147.336 320.896 150.756L307.254 146.559C308.575 141.428 311.452 137.309 315.882 134.199C320.391 131.09 326.415 129.536 333.955 129.536C339.085 129.536 343.555 130.352 347.364 131.984C351.172 133.539 354.126 135.91 356.225 139.096C358.401 142.283 359.49 146.287 359.49 151.106V174.775C359.49 177.729 360.889 179.206 363.687 179.206C365.009 179.206 366.252 179.012 367.418 178.623L366.485 188.534C364.464 189.544 361.938 190.049 358.907 190.049C356.186 190.049 353.737 189.583 351.561 188.65C349.385 187.718 347.674 186.318 346.431 184.453C345.187 182.51 344.565 180.1 344.565 177.224V176.757L347.364 176.291C346.897 179.245 345.615 181.771 343.516 183.87C341.417 185.891 338.852 187.445 335.82 188.534C332.867 189.622 329.796 190.166 326.609 190.166C322.645 190.166 319.225 189.583 316.349 188.417C313.473 187.173 311.257 185.386 309.703 183.054C308.148 180.722 307.371 177.846 307.371 174.425C307.371 170.072 308.77 166.536 311.568 163.815C314.366 161.017 318.37 159.112 323.578 158.102L345.498 153.671L345.381 163.582L331.39 166.38C328.747 166.924 326.726 167.663 325.327 168.596C324.005 169.451 323.344 170.889 323.344 172.91C323.344 174.853 324.044 176.33 325.443 177.34C326.92 178.351 328.669 178.856 330.69 178.856C332.322 178.856 333.916 178.662 335.471 178.273C337.025 177.885 338.424 177.263 339.668 176.408C340.912 175.553 341.883 174.387 342.583 172.91C343.283 171.433 343.632 169.645 343.632 167.546V151.806ZM395.666 190.166C390.846 190.166 386.532 188.961 382.723 186.552C378.992 184.142 376.039 180.683 373.862 176.174C371.763 171.666 370.714 166.264 370.714 159.967C370.714 153.516 371.841 148.036 374.095 143.527C376.349 138.941 379.381 135.482 383.19 133.15C387.076 130.74 391.429 129.536 396.249 129.536C401.379 129.536 405.615 131.012 408.958 133.966C412.3 136.92 414.477 140.729 415.487 145.393L413.972 147.258V105.167H429.945V189H415.604L414.555 171.277L416.42 172.21C415.954 175.863 414.749 179.05 412.806 181.771C410.862 184.414 408.414 186.474 405.46 187.951C402.506 189.428 399.241 190.166 395.666 190.166ZM400.33 177.923C403.128 177.923 405.538 177.224 407.559 175.825C409.58 174.348 411.134 172.21 412.223 169.412C413.389 166.613 413.972 163.271 413.972 159.384C413.972 155.653 413.427 152.505 412.339 149.94C411.251 147.297 409.696 145.276 407.675 143.877C405.654 142.478 403.283 141.778 400.563 141.778C396.21 141.778 392.79 143.333 390.302 146.442C387.893 149.474 386.688 153.943 386.688 159.851C386.688 165.758 387.893 170.267 390.302 173.376C392.712 176.408 396.054 177.923 400.33 177.923ZM470.283 190.166C464.142 190.166 458.778 188.961 454.192 186.552C449.684 184.142 446.186 180.683 443.698 176.174C441.211 171.666 439.967 166.225 439.967 159.851C439.967 153.477 441.211 148.036 443.698 143.527C446.186 139.019 449.645 135.56 454.076 133.15C458.584 130.74 463.714 129.536 469.466 129.536C475.374 129.536 480.388 130.74 484.507 133.15C488.627 135.482 491.775 138.708 493.952 142.828C496.128 146.87 497.216 151.495 497.216 156.703C497.216 158.257 497.178 159.734 497.1 161.133C497.022 162.533 496.906 163.776 496.75 164.864H450.228V153.788H489.754L482.059 156.586C482.059 151.689 480.932 147.919 478.678 145.276C476.501 142.633 473.392 141.312 469.35 141.312C466.396 141.312 463.831 142.011 461.654 143.411C459.556 144.81 457.962 146.909 456.874 149.707C455.786 152.427 455.241 155.886 455.241 160.084C455.241 164.204 455.824 167.624 456.99 170.345C458.234 172.987 459.944 174.97 462.121 176.291C464.375 177.612 467.057 178.273 470.166 178.273C473.586 178.273 476.346 177.612 478.444 176.291C480.543 174.97 482.175 173.143 483.341 170.811L496.051 175.708C494.807 178.74 492.902 181.344 490.337 183.52C487.85 185.697 484.857 187.368 481.359 188.534C477.939 189.622 474.247 190.166 470.283 190.166ZM507.256 189V130.701H521.597L522.53 148.191L520.548 146.326C521.481 142.517 522.957 139.407 524.978 136.998C526.999 134.51 529.448 132.645 532.324 131.401C535.278 130.157 538.504 129.536 542.002 129.536C546.044 129.536 549.619 130.313 552.729 131.867C555.916 133.422 558.403 135.793 560.191 138.98C562.056 142.089 562.989 146.015 562.989 150.756V189H547.015V155.304C547.015 150.329 546.044 146.909 544.1 145.043C542.157 143.1 539.631 142.128 536.522 142.128C534.345 142.128 532.208 142.672 530.109 143.76C528.088 144.771 526.417 146.442 525.095 148.774C523.851 151.106 523.23 154.215 523.23 158.102V189H507.256ZM602.415 129.536C607.623 129.536 612.015 130.313 615.591 131.867C619.244 133.344 622.159 135.404 624.336 138.047C626.59 140.612 628.183 143.488 629.116 146.675L614.192 152.039C613.414 148.541 612.093 145.898 610.227 144.11C608.362 142.322 605.836 141.428 602.649 141.428C599.695 141.428 597.169 142.128 595.07 143.527C592.971 144.849 591.378 146.909 590.289 149.707C589.201 152.427 588.657 155.848 588.657 159.967C588.657 164.087 589.201 167.507 590.289 170.228C591.455 172.949 593.088 174.97 595.186 176.291C597.363 177.612 599.889 178.273 602.765 178.273C605.097 178.273 607.079 177.885 608.712 177.107C610.344 176.252 611.666 175.047 612.676 173.493C613.764 171.938 614.503 170.072 614.891 167.896L629.349 172.56C628.494 176.058 626.901 179.128 624.569 181.771C622.237 184.414 619.244 186.474 615.591 187.951C611.938 189.428 607.701 190.166 602.882 190.166C596.897 190.166 591.611 188.961 587.025 186.552C582.438 184.142 578.902 180.683 576.414 176.174C573.927 171.666 572.683 166.225 572.683 159.851C572.683 153.477 573.927 148.036 576.414 143.527C578.902 139.019 582.4 135.56 586.908 133.15C591.416 130.74 596.586 129.536 602.415 129.536ZM665.314 190.166C659.173 190.166 653.81 188.961 649.224 186.552C644.715 184.142 641.217 180.683 638.73 176.174C636.243 171.666 634.999 166.225 634.999 159.851C634.999 153.477 636.243 148.036 638.73 143.527C641.217 139.019 644.677 135.56 649.107 133.15C653.616 130.74 658.746 129.536 664.498 129.536C670.406 129.536 675.419 130.74 679.539 133.15C683.659 135.482 686.807 138.708 688.983 142.828C691.16 146.87 692.248 151.495 692.248 156.703C692.248 158.257 692.209 159.734 692.132 161.133C692.054 162.533 691.937 163.776 691.782 164.864H645.259V153.788H684.786L677.091 156.586C677.091 151.689 675.963 147.919 673.709 145.276C671.533 142.633 668.423 141.312 664.381 141.312C661.428 141.312 658.863 142.011 656.686 143.411C654.587 144.81 652.994 146.909 651.906 149.707C650.817 152.427 650.273 155.886 650.273 160.084C650.273 164.204 650.856 167.624 652.022 170.345C653.266 172.987 654.976 174.97 657.152 176.291C659.407 177.612 662.088 178.273 665.198 178.273C668.618 178.273 671.377 177.612 673.476 176.291C675.575 174.97 677.207 173.143 678.373 170.811L691.082 175.708C689.839 178.74 687.934 181.344 685.369 183.52C682.882 185.697 679.889 187.368 676.391 188.534C672.971 189.622 669.279 190.166 665.314 190.166Z" fill="#1A1363"/>
<path d="M184.345 204.997C188.431 204.997 191.743 201.685 191.743 197.599C191.743 193.513 188.431 190.201 184.345 190.201C180.259 190.201 176.947 193.513 176.947 197.599C176.947 201.685 180.259 204.997 184.345 204.997Z" fill="#1A1363"/>
<path d="M184.345 204.997C188.431 204.997 191.743 201.685 191.743 197.599C191.743 193.513 188.431 190.201 184.345 190.201C180.259 190.201 176.947 193.513 176.947 197.599C176.947 201.685 180.259 204.997 184.345 204.997Z" fill="#1A1363"/>
<path d="M184.345 204.997C188.431 204.997 191.743 201.685 191.743 197.599C191.743 193.513 188.431 190.201 184.345 190.201C180.259 190.201 176.947 193.513 176.947 197.599C176.947 201.685 180.259 204.997 184.345 204.997Z" fill="#1A1363"/>
<path d="M184.345 204.997C188.431 204.997 191.743 201.685 191.743 197.599C191.743 193.513 188.431 190.201 184.345 190.201C180.259 190.201 176.947 193.513 176.947 197.599C176.947 201.685 180.259 204.997 184.345 204.997Z" fill="#1A1363"/>
<path d="M184.308 204.997C188.394 204.997 191.706 201.685 191.706 197.599C191.706 193.513 188.394 190.201 184.308 190.201C180.222 190.201 176.91 193.513 176.91 197.599C176.91 201.685 180.222 204.997 184.308 204.997Z" fill="#1A1363"/>
<path d="M184.271 205.034C188.356 205.034 191.669 201.722 191.669 197.636C191.669 193.55 188.356 190.238 184.271 190.238C180.185 190.238 176.873 193.55 176.873 197.636C176.873 201.722 180.185 205.034 184.271 205.034Z" fill="#1A1363"/>
<path d="M184.197 205.108C188.282 205.108 191.594 201.796 191.594 197.71C191.594 193.625 188.282 190.313 184.197 190.313C180.111 190.313 176.799 193.625 176.799 197.71C176.799 201.796 180.111 205.108 184.197 205.108Z" fill="#1A1363"/>
<path d="M184.05 205.256C188.136 205.256 191.448 201.944 191.448 197.859C191.448 193.773 188.136 190.461 184.05 190.461C179.964 190.461 176.652 193.773 176.652 197.859C176.652 201.944 179.964 205.256 184.05 205.256Z" fill="#1A1363"/>
<path d="M183.788 205.478C187.874 205.478 191.186 202.166 191.186 198.08C191.186 193.995 187.874 190.683 183.788 190.683C179.703 190.683 176.391 193.995 176.391 198.08C176.391 202.166 179.703 205.478 183.788 205.478Z" fill="#1A1363"/>
<path d="M183.419 205.848C187.505 205.848 190.817 202.536 190.817 198.45C190.817 194.365 187.505 191.052 183.419 191.052C179.334 191.052 176.021 194.365 176.021 198.45C176.021 202.536 179.334 205.848 183.419 205.848Z" fill="#1A1363"/>
<path d="M182.829 206.366C186.915 206.366 190.227 203.053 190.227 198.968C190.227 194.882 186.915 191.57 182.829 191.57C178.744 191.57 175.432 194.882 175.432 198.968C175.432 203.053 178.744 206.366 182.829 206.366Z" fill="#1A1363"/>
<path d="M181.978 207.068C186.063 207.068 189.376 203.756 189.376 199.671C189.376 195.585 186.063 192.273 181.978 192.273C177.892 192.273 174.58 195.585 174.58 199.671C174.58 203.756 177.892 207.068 181.978 207.068Z" fill="#1A1363"/>
<path d="M180.794 208.067C184.88 208.067 188.192 204.755 188.192 200.669C188.192 196.584 184.88 193.272 180.794 193.272C176.709 193.272 173.396 196.584 173.396 200.669C173.396 204.755 176.709 208.067 180.794 208.067Z" fill="#1A1363"/>
<path d="M179.13 209.325C183.216 209.325 186.528 206.013 186.528 201.927C186.528 197.842 183.216 194.529 179.13 194.529C175.044 194.529 171.732 197.842 171.732 201.927C171.732 206.013 175.044 209.325 179.13 209.325Z" fill="#1A1363"/>
<path d="M176.872 210.879C180.958 210.879 184.27 207.566 184.27 203.481C184.27 199.395 180.958 196.083 176.872 196.083C172.787 196.083 169.475 199.395 169.475 203.481C169.475 207.566 172.787 210.879 176.872 210.879Z" fill="#1A1363"/>
<path d="M173.841 212.765C177.927 212.765 181.239 209.453 181.239 205.367C181.239 201.282 177.927 197.97 173.841 197.97C169.755 197.97 166.443 201.282 166.443 205.367C166.443 209.453 169.755 212.765 173.841 212.765Z" fill="#1A1363"/>
<path d="M169.808 214.873C173.894 214.873 177.206 211.561 177.206 207.475C177.206 203.389 173.894 200.077 169.808 200.077C165.722 200.077 162.41 203.389 162.41 207.475C162.41 211.561 165.722 214.873 169.808 214.873Z" fill="#1A1363"/>
<path d="M164.593 217.055C168.679 217.055 171.991 213.743 171.991 209.658C171.991 205.572 168.679 202.26 164.593 202.26C160.507 202.26 157.195 205.572 157.195 209.658C157.195 213.743 160.507 217.055 164.593 217.055Z" fill="#1A1363"/>
<path d="M157.861 219.053C161.946 219.053 165.258 215.741 165.258 211.655C165.258 207.57 161.946 204.257 157.861 204.257C153.775 204.257 150.463 207.57 150.463 211.655C150.463 215.741 153.775 219.053 157.861 219.053Z" fill="#1A1363"/>
<path d="M149.427 220.31C153.513 220.31 156.825 216.998 156.825 212.913C156.825 208.827 153.513 205.515 149.427 205.515C145.341 205.515 142.029 208.827 142.029 212.913C142.029 216.998 145.341 220.31 149.427 220.31Z" fill="#1A1363"/>
<path d="M139.072 220.199C143.157 220.199 146.469 216.887 146.469 212.802C146.469 208.716 143.157 205.404 139.072 205.404C134.986 205.404 131.674 208.716 131.674 212.802C131.674 216.887 134.986 220.199 139.072 220.199Z" fill="#1A1363"/>
<path d="M127.013 217.61C131.099 217.61 134.411 214.298 134.411 210.212C134.411 206.126 131.099 202.814 127.013 202.814C122.927 202.814 119.615 206.126 119.615 210.212C119.615 214.298 122.927 217.61 127.013 217.61Z" fill="#1A1363"/>
<path d="M113.771 211.322C117.856 211.322 121.169 208.01 121.169 203.925C121.169 199.839 117.856 196.527 113.771 196.527C109.685 196.527 106.373 199.839 106.373 203.925C106.373 208.01 109.685 211.322 113.771 211.322Z" fill="#1A1363"/>
<path d="M100.824 199.929C104.909 199.929 108.221 196.617 108.221 192.532C108.221 188.446 104.909 185.134 100.824 185.134C96.7379 185.134 93.4258 188.446 93.4258 192.532C93.4258 196.617 96.7379 199.929 100.824 199.929Z" fill="#1A1363"/>
<path d="M90.763 182.471C94.8486 182.471 98.1607 179.159 98.1607 175.073C98.1607 170.988 94.8486 167.676 90.763 167.676C86.6773 167.676 83.3652 170.988 83.3652 175.073C83.3652 179.159 86.6773 182.471 90.763 182.471Z" fill="#1A1363"/>
<path d="M87.3977 159.353C91.4834 159.353 94.7955 156.041 94.7955 151.955C94.7955 147.869 91.4834 144.557 87.3977 144.557C83.3121 144.557 80 147.869 80 151.955C80 156.041 83.3121 159.353 87.3977 159.353Z" fill="#1A1363"/>
<path d="M95.2024 133.608C99.2881 133.608 102.6 130.296 102.6 126.211C102.6 122.125 99.2881 118.813 95.2024 118.813C91.1168 118.813 87.8047 122.125 87.8047 126.211C87.8047 130.296 91.1168 133.608 95.2024 133.608Z" fill="#1A1363"/>
<path d="M117.322 112.155C121.407 112.155 124.719 108.843 124.719 104.757C124.719 100.672 121.407 97.3595 117.322 97.3595C113.236 97.3595 109.924 100.672 109.924 104.757C109.924 108.843 113.236 112.155 117.322 112.155Z" fill="#1A1363"/>
<path d="M151.759 105.497C155.845 105.497 159.157 102.185 159.157 98.0993C159.157 94.0136 155.845 90.7015 151.759 90.7015C147.673 90.7015 144.361 94.0136 144.361 98.0993C144.361 102.185 147.673 105.497 151.759 105.497Z" fill="#1A1363"/>
<path d="M187.195 123.437C191.28 123.437 194.592 120.125 194.592 116.039C194.592 111.953 191.28 108.641 187.195 108.641C183.109 108.641 179.797 111.953 179.797 116.039C179.797 120.125 183.109 123.437 187.195 123.437Z" fill="#1A1363"/>
</svg>
